<svg xmlns="http://www.w3.org/2000/svg" viewBox="0 0 349.04 380.28"><title>THRIVE</title><g id="Layer_2" data-name="Layer 2"><g id="Layer_1-2" data-name="Layer 1"><rect x="167.46" y="177.01" width="15.26" height="101.05"/><rect x="68.65" y="174.8" width="212.23" height="14.78"/><path d="M346.56,277.91H3.62L175.09,0ZM28.93,263.79H321.24L175.09,26.9Z"/><path d="M45,296.55v6H27.18v46.74H19.7V302.55H1.77v-6Z"/><path d="M112.59,349.29h-7.52v-24H75.3v24H67.78V296.55H75.3v23.52h29.77V296.55h7.52Z"/><path d="M149.18,327.28v22h-7.44V296.55h15.62a35.68,35.68,0,0,1,9.06,1,17.66,17.66,0,0,1,6.3,2.93,11.8,11.8,0,0,1,3.68,4.62,14.84,14.84,0,0,1,1.2,6.05,14.55,14.55,0,0,1-.93,5.23,13.69,13.69,0,0,1-2.68,4.36,15.91,15.91,0,0,1-4.28,3.29A21.8,21.8,0,0,1,164,326.1a7.75,7.75,0,0,1,2.47,2.25l16.12,20.94h-6.63a3.31,3.31,0,0,1-3-1.51l-14.34-18.84a4.12,4.12,0,0,0-1.43-1.27,5.37,5.37,0,0,0-2.31-.39Zm0-5.19H157a19.91,19.91,0,0,0,5.76-.75,11.9,11.9,0,0,0,4.16-2.13,8.9,8.9,0,0,0,2.53-3.29,10.34,10.34,0,0,0,.85-4.23,8.25,8.25,0,0,0-3.26-7.1q-3.26-2.39-9.7-2.39h-8.17Z"/><path d="M214.38,349.29H206.9V296.55h7.48Z"/><path d="M237.67,296.55h6a2.57,2.57,0,0,1,1.62.48,3,3,0,0,1,.93,1.21l15.62,37.21a25.28,25.28,0,0,1,1,2.72q.44,1.47.87,3.05.35-1.58.75-3.05a20.68,20.68,0,0,1,.94-2.72l15.54-37.21a3.1,3.1,0,0,1,.93-1.16,2.48,2.48,0,0,1,1.62-.53h6l-22.52,52.74h-6.75Z"/><path d="M345.44,296.55v5.81H318.91v17.52h21.48v5.59H318.91v18h26.53v5.81h-34V296.55Z"/><path d="M14.5,376.32a.54.54,0,0,1,.38.16l1,1a8.11,8.11,0,0,1-2.83,2,10.05,10.05,0,0,1-4,.72,9.82,9.82,0,0,1-3.72-.68,8.17,8.17,0,0,1-2.85-1.9,8.49,8.49,0,0,1-1.83-2.93A10.48,10.48,0,0,1,0,371a9.87,9.87,0,0,1,.7-3.76,8.54,8.54,0,0,1,2-2.93,8.8,8.8,0,0,1,3-1.9,10.7,10.7,0,0,1,3.88-.68,9.53,9.53,0,0,1,3.61.62,9.18,9.18,0,0,1,2.7,1.68L15,365.16a.89.89,0,0,1-.21.21.6.6,0,0,1-.34.08.69.69,0,0,1-.36-.12l-.46-.3q-.27-.18-.62-.38a5.63,5.63,0,0,0-.85-.38A7.33,7.33,0,0,0,11,364a8.32,8.32,0,0,0-1.5-.12,7.54,7.54,0,0,0-2.79.5,6.29,6.29,0,0,0-2.18,1.42A6.44,6.44,0,0,0,3.13,368a8.24,8.24,0,0,0-.51,3,8.39,8.39,0,0,0,.51,3,6.62,6.62,0,0,0,1.39,2.25,5.87,5.87,0,0,0,2.09,1.4,6.94,6.94,0,0,0,2.6.48,11.09,11.09,0,0,0,1.52-.09,6.54,6.54,0,0,0,1.25-.3,5.4,5.4,0,0,0,1.07-.51,8.38,8.38,0,0,0,1-.74A.69.69,0,0,1,14.5,376.32Z"/><path d="M42,371a10,10,0,0,1-.68,3.74,8.38,8.38,0,0,1-4.87,4.83,11.12,11.12,0,0,1-7.64,0A8.39,8.39,0,0,1,24,374.74a10.68,10.68,0,0,1,0-7.48,8.44,8.44,0,0,1,4.86-4.85,11,11,0,0,1,7.64,0,8.43,8.43,0,0,1,4.87,4.85A10,10,0,0,1,42,371Zm-2.64,0a8.82,8.82,0,0,0-.48-3,6.29,6.29,0,0,0-1.35-2.25,5.87,5.87,0,0,0-2.12-1.41,8.06,8.06,0,0,0-5.55,0,5.94,5.94,0,0,0-2.13,1.41A6.22,6.22,0,0,0,26.4,368a9.63,9.63,0,0,0,0,6,6.22,6.22,0,0,0,1.36,2.24,5.87,5.87,0,0,0,2.13,1.4,8.16,8.16,0,0,0,5.55,0,5.81,5.81,0,0,0,2.12-1.4A6.29,6.29,0,0,0,38.91,374,8.76,8.76,0,0,0,39.39,371Z"/><path d="M52.49,362a1.3,1.3,0,0,1,.38.33l11,13.66q0-.33-.05-.64t0-.6V361.93h2.25v18.13h-1.3a1.15,1.15,0,0,1-.51-.1,1.27,1.27,0,0,1-.4-.34L52.86,366q0,.32,0,.62c0,.2,0,.39,0,.56v12.92H50.66V361.93H52A1.19,1.19,0,0,1,52.49,362Z"/><path d="M85.54,364.77a1,1,0,0,1-.25.28.58.58,0,0,1-.34.1.94.94,0,0,1-.52-.22,8.41,8.41,0,0,0-.76-.47,6.28,6.28,0,0,0-1.1-.47,5,5,0,0,0-1.56-.21,4.81,4.81,0,0,0-1.52.22,3.29,3.29,0,0,0-1.11.6,2.48,2.48,0,0,0-.67.89,2.73,2.73,0,0,0-.22,1.11,2,2,0,0,0,.39,1.26,3.33,3.33,0,0,0,1,.85,8.05,8.05,0,0,0,1.46.61l1.67.54q.86.28,1.67.63a5.92,5.92,0,0,1,1.46.88,4,4,0,0,1,1,1.3,4.18,4.18,0,0,1,.39,1.9,5.88,5.88,0,0,1-.42,2.23,5.15,5.15,0,0,1-1.24,1.82,5.85,5.85,0,0,1-2,1.21,7.68,7.68,0,0,1-2.7.44,8.57,8.57,0,0,1-3.36-.64,7.89,7.89,0,0,1-2.59-1.73l.74-1.16a1,1,0,0,1,.26-.23.62.62,0,0,1,.34-.09,1.08,1.08,0,0,1,.64.28,10.48,10.48,0,0,0,.89.63,6.92,6.92,0,0,0,1.3.63,5.34,5.34,0,0,0,1.86.28,5.11,5.11,0,0,0,1.63-.24,3.49,3.49,0,0,0,1.21-.68,2.94,2.94,0,0,0,.76-1,3.35,3.35,0,0,0,.27-1.35,2.2,2.2,0,0,0-.39-1.35,3.2,3.2,0,0,0-1-.88,7.37,7.37,0,0,0-1.45-.6l-1.67-.51A17.36,17.36,0,0,1,78,371a5.47,5.47,0,0,1-1.45-.89,4.09,4.09,0,0,1-1-1.36,5,5,0,0,1,0-3.88,4.8,4.8,0,0,1,1.13-1.59,5.53,5.53,0,0,1,1.83-1.11,7,7,0,0,1,2.51-.42,8.39,8.39,0,0,1,2.9.48,6.75,6.75,0,0,1,2.29,1.39Z"/><path d="M108.37,376.32a.54.54,0,0,1,.38.16l1,1a8.11,8.11,0,0,1-2.83,2,10.05,10.05,0,0,1-4,.72,9.82,9.82,0,0,1-3.72-.68,8.17,8.17,0,0,1-2.85-1.9,8.49,8.49,0,0,1-1.83-2.93,10.48,10.48,0,0,1-.65-3.76,9.87,9.87,0,0,1,.7-3.76,8.54,8.54,0,0,1,2-2.93,8.8,8.8,0,0,1,3-1.9,10.7,10.7,0,0,1,3.88-.68,9.53,9.53,0,0,1,3.61.62,9.18,9.18,0,0,1,2.7,1.68l-.83,1.13a.89.89,0,0,1-.21.21.6.6,0,0,1-.34.08.69.69,0,0,1-.36-.12l-.46-.3q-.27-.18-.62-.38a5.63,5.63,0,0,0-.85-.38,7.33,7.33,0,0,0-1.14-.3,8.32,8.32,0,0,0-1.5-.12,7.54,7.54,0,0,0-2.79.5,6.29,6.29,0,0,0-2.18,1.42A6.44,6.44,0,0,0,97,368a8.24,8.24,0,0,0-.51,3,8.39,8.39,0,0,0,.51,3,6.62,6.62,0,0,0,1.39,2.25,5.87,5.87,0,0,0,2.09,1.4,6.94,6.94,0,0,0,2.6.48,11.09,11.09,0,0,0,1.52-.09,6.54,6.54,0,0,0,1.25-.3,5.4,5.4,0,0,0,1.07-.51,8.38,8.38,0,0,0,1-.74A.69.69,0,0,1,108.37,376.32Z"/><path d="M121.3,380.06h-2.57V361.93h2.57Z"/><path d="M149.15,371a10,10,0,0,1-.68,3.74,8.38,8.38,0,0,1-4.87,4.83,11.12,11.12,0,0,1-7.64,0,8.39,8.39,0,0,1-4.86-4.83,10.68,10.68,0,0,1,0-7.48,8.44,8.44,0,0,1,4.86-4.85,11,11,0,0,1,7.64,0,8.43,8.43,0,0,1,4.87,4.85A10,10,0,0,1,149.15,371Zm-2.64,0a8.82,8.82,0,0,0-.48-3,6.29,6.29,0,0,0-1.35-2.25,5.87,5.87,0,0,0-2.12-1.41,8.06,8.06,0,0,0-5.55,0,5.94,5.94,0,0,0-2.13,1.41,6.22,6.22,0,0,0-1.36,2.25,9.63,9.63,0,0,0,0,6,6.22,6.22,0,0,0,1.36,2.24,5.87,5.87,0,0,0,2.13,1.4,8.16,8.16,0,0,0,5.55,0,5.81,5.81,0,0,0,2.12-1.4A6.29,6.29,0,0,0,146,374,8.76,8.76,0,0,0,146.51,371Z"/><path d="M165.16,378.11a5.53,5.53,0,0,0,2.11-.38,4.43,4.43,0,0,0,1.57-1.06,4.59,4.59,0,0,0,1-1.63,6.18,6.18,0,0,0,.34-2.09v-11h2.56v11a7.94,7.94,0,0,1-.52,2.91,6.73,6.73,0,0,1-1.5,2.32,6.87,6.87,0,0,1-2.38,1.54,9.22,9.22,0,0,1-6.31,0,6.94,6.94,0,0,1-2.39-1.54,6.66,6.66,0,0,1-1.5-2.32,7.92,7.92,0,0,1-.52-2.91v-11h2.56v11a6.18,6.18,0,0,0,.34,2.09,4.61,4.61,0,0,0,1,1.63,4.48,4.48,0,0,0,1.58,1.07A5.49,5.49,0,0,0,165.16,378.11Z"/><path d="M192,364.77a1,1,0,0,1-.25.28.58.58,0,0,1-.34.1.94.94,0,0,1-.52-.22,8.41,8.41,0,0,0-.76-.47A6.28,6.28,0,0,0,189,364a5,5,0,0,0-1.56-.21,4.81,4.81,0,0,0-1.52.22,3.29,3.29,0,0,0-1.11.6,2.48,2.48,0,0,0-.67.89,2.73,2.73,0,0,0-.22,1.11,2,2,0,0,0,.39,1.26,3.33,3.33,0,0,0,1,.85,8.05,8.05,0,0,0,1.46.61l1.67.54q.86.28,1.67.63a5.92,5.92,0,0,1,1.46.88,4,4,0,0,1,1,1.3,4.18,4.18,0,0,1,.39,1.9,5.88,5.88,0,0,1-.42,2.23,5.15,5.15,0,0,1-1.24,1.82,5.85,5.85,0,0,1-2,1.21,7.68,7.68,0,0,1-2.7.44,8.57,8.57,0,0,1-3.36-.64,7.89,7.89,0,0,1-2.59-1.73l.74-1.16a1,1,0,0,1,.26-.23.62.62,0,0,1,.34-.09,1.08,1.08,0,0,1,.64.28,10.48,10.48,0,0,0,.89.63,6.92,6.92,0,0,0,1.3.63,5.34,5.34,0,0,0,1.86.28,5.11,5.11,0,0,0,1.63-.24,3.49,3.49,0,0,0,1.21-.68,2.94,2.94,0,0,0,.76-1,3.35,3.35,0,0,0,.27-1.35,2.2,2.2,0,0,0-.39-1.35,3.2,3.2,0,0,0-1-.88,7.37,7.37,0,0,0-1.45-.6l-1.67-.51a17.36,17.36,0,0,1-1.67-.6,5.47,5.47,0,0,1-1.45-.89,4.09,4.09,0,0,1-1-1.36,5,5,0,0,1,0-3.88,4.8,4.8,0,0,1,1.13-1.59,5.53,5.53,0,0,1,1.83-1.11,7,7,0,0,1,2.51-.42,8.39,8.39,0,0,1,2.9.48,6.75,6.75,0,0,1,2.29,1.39Z"/><path d="M218.23,361.93v2h-9.12v6.34h7.79v2h-7.79v7.79h-2.58V361.93Z"/><path d="M242.27,380.06h-2a.88.88,0,0,1-.56-.16,1,1,0,0,1-.32-.42l-1.78-4.38h-8.52l-1.78,4.38a1,1,0,0,1-.32.4.87.87,0,0,1-.56.18h-2l7.59-18.13h2.61Zm-12.45-6.73h7.09l-3-7.37a13.2,13.2,0,0,1-.57-1.71q-.15.52-.29,1t-.27.77Z"/><path d="M259.52,364.77a1,1,0,0,1-.25.28.58.58,0,0,1-.34.1.94.94,0,0,1-.52-.22,8.41,8.41,0,0,0-.76-.47,6.28,6.28,0,0,0-1.1-.47,5,5,0,0,0-1.56-.21,4.81,4.81,0,0,0-1.52.22,3.29,3.29,0,0,0-1.11.6,2.48,2.48,0,0,0-.67.89,2.73,2.73,0,0,0-.22,1.11,2,2,0,0,0,.39,1.26,3.33,3.33,0,0,0,1,.85,8.05,8.05,0,0,0,1.46.61l1.67.54q.86.28,1.67.63a5.92,5.92,0,0,1,1.46.88,4,4,0,0,1,1,1.3,4.18,4.18,0,0,1,.39,1.9,5.88,5.88,0,0,1-.42,2.23,5.15,5.15,0,0,1-1.24,1.82,5.85,5.85,0,0,1-2,1.21,7.68,7.68,0,0,1-2.7.44,8.57,8.57,0,0,1-3.36-.64,7.89,7.89,0,0,1-2.59-1.73l.74-1.16a1,1,0,0,1,.26-.23.62.62,0,0,1,.34-.09,1.08,1.08,0,0,1,.64.28,10.48,10.48,0,0,0,.89.63,6.92,6.92,0,0,0,1.3.63,5.34,5.34,0,0,0,1.86.28,5.11,5.11,0,0,0,1.63-.24,3.49,3.49,0,0,0,1.21-.68,2.94,2.94,0,0,0,.76-1,3.35,3.35,0,0,0,.27-1.35,2.2,2.2,0,0,0-.39-1.35,3.2,3.2,0,0,0-1-.88,7.37,7.37,0,0,0-1.45-.6l-1.67-.51a17.36,17.36,0,0,1-1.67-.6,5.47,5.47,0,0,1-1.45-.89,4.09,4.09,0,0,1-1-1.36,5,5,0,0,1,0-3.88,4.8,4.8,0,0,1,1.13-1.59,5.53,5.53,0,0,1,1.83-1.11,7,7,0,0,1,2.51-.42,8.39,8.39,0,0,1,2.9.48,6.75,6.75,0,0,1,2.29,1.39Z"/><path d="M284.36,380.06h-2.58v-8.25H271.54v8.25H269V361.93h2.58V370h10.23v-8.08h2.58Z"/><path d="M297.16,380.06h-2.57V361.93h2.57Z"/><path d="M325,371a10,10,0,0,1-.68,3.74,8.38,8.38,0,0,1-4.87,4.83,11.12,11.12,0,0,1-7.64,0,8.39,8.39,0,0,1-4.86-4.83,10.68,10.68,0,0,1,0-7.48,8.44,8.44,0,0,1,4.86-4.85,11,11,0,0,1,7.64,0,8.43,8.43,0,0,1,4.87,4.85A10,10,0,0,1,325,371Zm-2.64,0a8.82,8.82,0,0,0-.48-3,6.29,6.29,0,0,0-1.35-2.25,5.87,5.87,0,0,0-2.12-1.41,8.06,8.06,0,0,0-5.55,0,5.94,5.94,0,0,0-2.13,1.41,6.22,6.22,0,0,0-1.36,2.25,9.63,9.63,0,0,0,0,6,6.22,6.22,0,0,0,1.36,2.24,5.87,5.87,0,0,0,2.13,1.4,8.16,8.16,0,0,0,5.55,0,5.81,5.81,0,0,0,2.12-1.4,6.29,6.29,0,0,0,1.35-2.24A8.76,8.76,0,0,0,322.37,371Z"/><path d="M335.47,362a1.3,1.3,0,0,1,.38.33l11,13.66q0-.33-.05-.64t0-.6V361.93H349v18.13h-1.3a1.15,1.15,0,0,1-.51-.1,1.27,1.27,0,0,1-.4-.34l-11-13.65q0,.32,0,.62c0,.2,0,.39,0,.56v12.92h-2.25V361.93H335A1.19,1.19,0,0,1,335.47,362Z"/></g></g></svg>