<svg id="Lager_1" data-name="Lager 1" xmlns="http://www.w3.org/2000/svg" xmlns:xlink="http://www.w3.org/1999/xlink" viewBox="0 0 1280 800"><defs><style>.cls-1,.cls-2,.cls-23,.cls-3,.cls-4{fill:none;}.cls-1,.cls-3{clip-rule:evenodd;}.cls-23,.cls-3,.cls-4{stroke:#4e92df;stroke-miterlimit:10;stroke-width:5.05px;}.cls-5{clip-path:url(#clip-path);}.cls-6{clip-path:url(#clip-path-2);}.cls-7{fill:#4e92df;}.cls-8{clip-path:url(#clip-path-3);}.cls-9{clip-path:url(#clip-path-5);}.cls-10{clip-path:url(#clip-path-7);}.cls-11{clip-path:url(#clip-path-9);}.cls-12{clip-path:url(#clip-path-12);}.cls-13{clip-path:url(#clip-path-14);}.cls-14{clip-path:url(#clip-path-17);}.cls-15{clip-path:url(#clip-path-19);}.cls-16{clip-path:url(#clip-path-21);}.cls-17{clip-path:url(#clip-path-23);}.cls-18{clip-path:url(#clip-path-25);}.cls-19{clip-path:url(#clip-path-27);}.cls-20{clip-path:url(#clip-path-29);}.cls-21{clip-path:url(#clip-path-31);}.cls-22{clip-path:url(#clip-path-32);}.cls-23{fill-rule:evenodd;}</style><clipPath id="clip-path"><path class="cls-1" d="M294.09,126.61a10.08,10.08,0,0,1-.28,2.33v29.19a3.29,3.29,0,0,1-3,3.49h-6.29a3.29,3.29,0,0,1-3-3.49V135.65h-1.13V215a3,3,0,0,1-3,3h-6a3,3,0,0,1-3-3V177.71h-5.33v37.88a3,3,0,0,1-3,3h-6a3,3,0,0,1-3-3V135.65h-1.12v22a3.26,3.26,0,0,1-3,3.44H240.4a3.26,3.26,0,0,1-3-3.44V128.94a10,10,0,0,1-.28-2.33,9.23,9.23,0,0,1,6.74-9,8,8,0,0,1,1.65-.26H285.7a6.16,6.16,0,0,1,.81.09,9.17,9.17,0,0,1,7.58,9.21"/></clipPath><clipPath id="clip-path-2"><rect class="cls-2" x="62.94" y="-911.81" width="1187.44" height="2112.06"/></clipPath><clipPath id="clip-path-3"><path class="cls-1" d="M252.93,98.3A12.67,12.67,0,1,1,265.6,111,12.67,12.67,0,0,1,252.93,98.3"/></clipPath><clipPath id="clip-path-5"><path class="cls-1" d="M366.92,126.61a10.08,10.08,0,0,1-.28,2.33v29.19a3.29,3.29,0,0,1-3,3.49h-6.29a3.29,3.29,0,0,1-3-3.49V135.65h-1.13V215a3,3,0,0,1-3,3h-6a3,3,0,0,1-3-3V177.71h-5.33v37.88a3,3,0,0,1-3,3h-6a3,3,0,0,1-3-3V135.65h-1.12v22a3.26,3.26,0,0,1-3,3.44h-6.29a3.26,3.26,0,0,1-3-3.44V128.94a10,10,0,0,1-.28-2.33,9.23,9.23,0,0,1,6.74-9,8,8,0,0,1,1.65-.26h40.22a6.16,6.16,0,0,1,.81.09,9.17,9.17,0,0,1,7.58,9.21"/></clipPath><clipPath id="clip-path-7"><path class="cls-1" d="M325.76,98.3A12.67,12.67,0,1,1,338.43,111,12.67,12.67,0,0,1,325.76,98.3"/></clipPath><clipPath id="clip-path-9"><path class="cls-1" d="M439.75,126.61a10,10,0,0,1-.28,2.33v29.19a3.29,3.29,0,0,1-3,3.49h-6.29a3.29,3.29,0,0,1-3-3.49V135.65H426V215a3,3,0,0,1-3,3h-6a3,3,0,0,1-3-3V177.71h-5.33v37.88a3,3,0,0,1-3,3h-6a3,3,0,0,1-3-3V135.65h-1.12v22a3.26,3.26,0,0,1-3,3.44h-6.29a3.26,3.26,0,0,1-3-3.44V128.94a10,10,0,0,1-.28-2.33,9.23,9.23,0,0,1,6.74-9,8,8,0,0,1,1.65-.26h40.22a6.16,6.16,0,0,1,.81.09,9.17,9.17,0,0,1,7.58,9.21"/></clipPath><clipPath id="clip-path-12"><path class="cls-1" d="M398.59,98.3A12.67,12.67,0,1,1,411.26,111,12.67,12.67,0,0,1,398.59,98.3"/></clipPath><clipPath id="clip-path-14"><path class="cls-1" d="M512.58,126.61a10,10,0,0,1-.28,2.33v29.19a3.29,3.29,0,0,1-3,3.49H503a3.29,3.29,0,0,1-3-3.49V135.65h-1.13V215a3,3,0,0,1-3,3h-6a3,3,0,0,1-3-3V177.71h-5.33v37.88a3,3,0,0,1-3,3h-6a3,3,0,0,1-3-3V135.65h-1.12v22a3.26,3.26,0,0,1-3,3.44h-6.29a3.26,3.26,0,0,1-3-3.44V128.94a10,10,0,0,1-.28-2.33,9.23,9.23,0,0,1,6.74-9,8,8,0,0,1,1.65-.26h40.22a6.16,6.16,0,0,1,.81.09,9.17,9.17,0,0,1,7.58,9.21"/></clipPath><clipPath id="clip-path-17"><path class="cls-1" d="M471.42,98.3A12.67,12.67,0,1,1,484.08,111,12.67,12.67,0,0,1,471.42,98.3"/></clipPath><clipPath id="clip-path-19"><path class="cls-1" d="M585.41,126.61a10.08,10.08,0,0,1-.28,2.33v29.19a3.29,3.29,0,0,1-3,3.49h-6.29a3.29,3.29,0,0,1-3-3.49V135.65h-1.13V215a3,3,0,0,1-3,3h-6a3,3,0,0,1-3-3V177.71h-5.33v37.88a3,3,0,0,1-3,3h-6a3,3,0,0,1-3-3V135.65H541v22a3.26,3.26,0,0,1-3,3.44h-6.29a3.26,3.26,0,0,1-3-3.44V128.94a10,10,0,0,1-.28-2.33,9.23,9.23,0,0,1,6.74-9,8,8,0,0,1,1.65-.26H577a6.15,6.15,0,0,1,.81.09,9.17,9.17,0,0,1,7.58,9.21"/></clipPath><clipPath id="clip-path-21"><path class="cls-1" d="M544.25,98.3A12.67,12.67,0,1,1,556.91,111,12.67,12.67,0,0,1,544.25,98.3"/></clipPath><clipPath id="clip-path-23"><path class="cls-1" d="M658.24,126.61a10,10,0,0,1-.28,2.33v29.19a3.29,3.29,0,0,1-3,3.49h-6.29a3.29,3.29,0,0,1-3-3.49V135.65h-1.13V215a3,3,0,0,1-3,3h-6a3,3,0,0,1-3-3V177.71h-5.33v37.88a3,3,0,0,1-3,3h-6a3,3,0,0,1-3-3V135.65h-1.12v22a3.26,3.26,0,0,1-3,3.44h-6.29a3.26,3.26,0,0,1-3-3.44V128.94a10,10,0,0,1-.28-2.33,9.23,9.23,0,0,1,6.74-9,8,8,0,0,1,1.65-.26h40.22a6.15,6.15,0,0,1,.81.09,9.17,9.17,0,0,1,7.58,9.21"/></clipPath><clipPath id="clip-path-25"><path class="cls-1" d="M617.07,98.3A12.67,12.67,0,1,1,629.74,111,12.67,12.67,0,0,1,617.07,98.3"/></clipPath><clipPath id="clip-path-27"><path class="cls-1" d="M727.9,126.61a10,10,0,0,1-.28,2.33v29.19a3.29,3.29,0,0,1-3,3.49H718.3a3.29,3.29,0,0,1-3-3.49V135.65h-1.13V215a3,3,0,0,1-3,3h-6a3,3,0,0,1-3-3V177.71h-5.33v37.88a3,3,0,0,1-3,3h-6a3,3,0,0,1-3-3V135.65h-1.12v22a3.26,3.26,0,0,1-3,3.44h-6.29a3.26,3.26,0,0,1-3-3.44V128.94a10,10,0,0,1-.28-2.33,9.23,9.23,0,0,1,6.74-9,8,8,0,0,1,1.65-.26h40.22a6.15,6.15,0,0,1,.81.09,9.17,9.17,0,0,1,7.58,9.21"/></clipPath><clipPath id="clip-path-29"><path class="cls-1" d="M800.73,126.61a10.08,10.08,0,0,1-.28,2.33v29.19a3.29,3.29,0,0,1-3,3.49h-6.29a3.29,3.29,0,0,1-3-3.49V135.65H787V215a3,3,0,0,1-3,3h-6a3,3,0,0,1-3-3V177.71h-5.33v37.88a3,3,0,0,1-3,3h-6a3,3,0,0,1-3-3V135.65h-1.12v22a3.26,3.26,0,0,1-3,3.44H747a3.26,3.26,0,0,1-3-3.44V128.94a10,10,0,0,1-.28-2.33,9.23,9.23,0,0,1,6.74-9,8,8,0,0,1,1.65-.26h40.22a6.15,6.15,0,0,1,.81.09,9.17,9.17,0,0,1,7.58,9.21"/></clipPath><clipPath id="clip-path-31"><path class="cls-3" d="M873.56,126.61a10,10,0,0,1-.28,2.33v29.19a3.29,3.29,0,0,1-3,3.49H864a3.29,3.29,0,0,1-3-3.49V135.65H859.8V215a3,3,0,0,1-3,3h-6a3,3,0,0,1-3-3V177.71H842.4v37.88a3,3,0,0,1-3,3h-6a3,3,0,0,1-3-3V135.65H829.2v22a3.26,3.26,0,0,1-3,3.44h-6.29a3.26,3.26,0,0,1-3-3.44V128.94a10,10,0,0,1-.28-2.33,9.23,9.23,0,0,1,6.74-9,8,8,0,0,1,1.65-.26h40.22a6.15,6.15,0,0,1,.81.09,9.17,9.17,0,0,1,7.58,9.21"/></clipPath><clipPath id="clip-path-32"><rect class="cls-4" x="62.94" y="-911.81" width="1187.44" height="2112.06"/></clipPath></defs><title>Gubbar</title><g class="cls-5"><g class="cls-6"><rect class="cls-7" x="221.26" y="101.47" width="88.66" height="132.99"/></g></g><g class="cls-8"><g class="cls-6"><rect class="cls-7" x="237.09" y="69.81" width="57" height="57"/></g></g><g class="cls-9"><g class="cls-6"><rect class="cls-7" x="294.09" y="101.47" width="88.66" height="132.99"/></g></g><g class="cls-10"><g class="cls-6"><rect class="cls-7" x="309.92" y="69.81" width="57" height="57"/></g></g><g class="cls-11"><g class="cls-6"><rect class="cls-7" x="366.92" y="101.47" width="88.66" height="132.99"/></g></g><g class="cls-6"><path class="cls-7" d="M439.75,126.61a10,10,0,0,1-.28,2.33v29.19a3.29,3.29,0,0,1-3,3.49h-6.29a3.29,3.29,0,0,1-3-3.49V135.65H426V215a3,3,0,0,1-3,3h-6a3,3,0,0,1-3-3V177.71h-5.33v37.88a3,3,0,0,1-3,3h-6a3,3,0,0,1-3-3V135.65h-1.12v22a3.26,3.26,0,0,1-3,3.44h-6.29a3.26,3.26,0,0,1-3-3.44V128.94a10,10,0,0,1-.28-2.33,9.23,9.23,0,0,1,6.74-9,8,8,0,0,1,1.65-.26h40.22a6.15,6.15,0,0,1,.81.09A9.17,9.17,0,0,1,439.75,126.61Z"/></g><g class="cls-12"><g class="cls-6"><rect class="cls-7" x="382.75" y="69.81" width="57" height="57"/></g></g><g class="cls-13"><g class="cls-6"><rect class="cls-7" x="439.75" y="101.47" width="88.66" height="132.99"/></g></g><g class="cls-6"><path class="cls-7" d="M512.58,126.61a10,10,0,0,1-.28,2.33v29.19a3.29,3.29,0,0,1-3,3.49H503a3.29,3.29,0,0,1-3-3.49V135.65h-1.13V215a3,3,0,0,1-3,3h-6a3,3,0,0,1-3-3V177.71h-5.33v37.88a3,3,0,0,1-3,3h-6a3,3,0,0,1-3-3V135.65h-1.12v22a3.26,3.26,0,0,1-3,3.44h-6.29a3.26,3.26,0,0,1-3-3.44V128.94a10,10,0,0,1-.28-2.33,9.23,9.23,0,0,1,6.74-9,8,8,0,0,1,1.65-.26h40.22a6.15,6.15,0,0,1,.81.09A9.17,9.17,0,0,1,512.58,126.61Z"/></g><g class="cls-14"><g class="cls-6"><rect class="cls-7" x="455.58" y="69.81" width="57" height="57"/></g></g><g class="cls-15"><g class="cls-6"><rect class="cls-7" x="512.58" y="101.47" width="88.66" height="132.99"/></g></g><g class="cls-16"><g class="cls-6"><rect class="cls-7" x="528.41" y="69.81" width="57" height="57"/></g></g><g class="cls-17"><g class="cls-6"><rect class="cls-7" x="585.41" y="101.47" width="88.66" height="132.99"/></g></g><g class="cls-18"><g class="cls-6"><rect class="cls-7" x="601.24" y="69.81" width="57" height="57"/></g></g><g class="cls-19"><g class="cls-6"><rect class="cls-2" x="655.07" y="101.47" width="88.66" height="132.99"/></g></g><path class="cls-4" d="M727.9,126.61a10,10,0,0,1-.28,2.33v29.19a3.29,3.29,0,0,1-3,3.49H718.3a3.29,3.29,0,0,1-3-3.49V135.65h-1.13V215a3,3,0,0,1-3,3h-6a3,3,0,0,1-3-3V177.71h-5.33v37.88a3,3,0,0,1-3,3h-6a3,3,0,0,1-3-3V135.65h-1.12v22a3.26,3.26,0,0,1-3,3.44h-6.29a3.26,3.26,0,0,1-3-3.44V128.94a10,10,0,0,1-.28-2.33,9.23,9.23,0,0,1,6.74-9,8,8,0,0,1,1.65-.26h40.22a6.15,6.15,0,0,1,.81.09A9.17,9.17,0,0,1,727.9,126.61Z"/><path class="cls-4" d="M686.74,98.3A12.67,12.67,0,1,1,699.41,111,12.67,12.67,0,0,1,686.74,98.3Z"/><g class="cls-20"><g class="cls-6"><rect class="cls-2" x="727.9" y="101.47" width="88.66" height="132.99"/></g></g><path class="cls-4" d="M800.73,126.61a10.08,10.08,0,0,1-.28,2.33v29.19a3.29,3.29,0,0,1-3,3.49h-6.29a3.29,3.29,0,0,1-3-3.49V135.65H787V215a3,3,0,0,1-3,3h-6a3,3,0,0,1-3-3V177.71h-5.33v37.88a3,3,0,0,1-3,3h-6a3,3,0,0,1-3-3V135.65h-1.12v22a3.26,3.26,0,0,1-3,3.44H747a3.26,3.26,0,0,1-3-3.44V128.94a10,10,0,0,1-.28-2.33,9.23,9.23,0,0,1,6.74-9,8,8,0,0,1,1.65-.26h40.22a6.15,6.15,0,0,1,.81.09A9.17,9.17,0,0,1,800.73,126.61Z"/><path class="cls-4" d="M759.57,98.3A12.67,12.67,0,1,1,772.24,111,12.67,12.67,0,0,1,759.57,98.3Z"/><path class="cls-4" d="M797.57,427.43a10,10,0,0,1-.28,2.33v29.19a3.29,3.29,0,0,1-3,3.49H788a3.29,3.29,0,0,1-3-3.49V436.46H783.8v79.38a3,3,0,0,1-3,3h-6a3,3,0,0,1-3-3V478.53H766.4v37.88a3,3,0,0,1-3,3h-6a3,3,0,0,1-3-3V436.46H753.2v22a3.26,3.26,0,0,1-3,3.44h-6.29a3.26,3.26,0,0,1-3-3.44V429.76a10,10,0,0,1-.28-2.33,9.23,9.23,0,0,1,6.74-9,8,8,0,0,1,1.65-.26h40.22a6.14,6.14,0,0,1,.81.09A9.17,9.17,0,0,1,797.57,427.43Z"/><path class="cls-4" d="M756.4,399.12a12.67,12.67,0,1,1,12.67,12.67A12.67,12.67,0,0,1,756.4,399.12Z"/><path class="cls-4" d="M287.76,427.43a10.08,10.08,0,0,1-.28,2.33v29.19a3.29,3.29,0,0,1-3,3.49h-6.29a3.29,3.29,0,0,1-3-3.49V436.46H274v79.38a3,3,0,0,1-3,3h-6a3,3,0,0,1-3-3V478.53h-5.33v37.88a3,3,0,0,1-3,3h-6a3,3,0,0,1-3-3V436.46H243.4v22a3.26,3.26,0,0,1-3,3.44h-6.29a3.26,3.26,0,0,1-3-3.44V429.76a10,10,0,0,1-.28-2.33,9.23,9.23,0,0,1,6.74-9,8,8,0,0,1,1.65-.26h40.22a6.14,6.14,0,0,1,.81.09A9.17,9.17,0,0,1,287.76,427.43Z"/><path class="cls-4" d="M246.59,399.12a12.67,12.67,0,1,1,12.67,12.67A12.67,12.67,0,0,1,246.59,399.12Z"/><path class="cls-4" d="M360.59,427.43a10.08,10.08,0,0,1-.28,2.33v29.19a3.29,3.29,0,0,1-3,3.49H351a3.29,3.29,0,0,1-3-3.49V436.46h-1.13v79.38a3,3,0,0,1-3,3h-6a3,3,0,0,1-3-3V478.53h-5.33v37.88a3,3,0,0,1-3,3h-6a3,3,0,0,1-3-3V436.46h-1.12v22a3.26,3.26,0,0,1-3,3.44H306.9a3.26,3.26,0,0,1-3-3.44V429.76a10,10,0,0,1-.28-2.33,9.23,9.23,0,0,1,6.74-9,8,8,0,0,1,1.65-.26H352.2a6.14,6.14,0,0,1,.81.09A9.17,9.17,0,0,1,360.59,427.43Z"/><path class="cls-4" d="M319.42,399.12a12.67,12.67,0,1,1,12.67,12.67A12.67,12.67,0,0,1,319.42,399.12Z"/><path class="cls-4" d="M433.42,427.43a10.08,10.08,0,0,1-.28,2.33v29.19a3.29,3.29,0,0,1-3,3.49h-6.29a3.29,3.29,0,0,1-3-3.49V436.46h-1.13v79.38a3,3,0,0,1-3,3h-6a3,3,0,0,1-3-3V478.53h-5.33v37.88a3,3,0,0,1-3,3h-6a3,3,0,0,1-3-3V436.46h-1.12v22a3.26,3.26,0,0,1-3,3.44h-6.29a3.26,3.26,0,0,1-3-3.44V429.76a10,10,0,0,1-.28-2.33,9.23,9.23,0,0,1,6.74-9,8,8,0,0,1,1.65-.26H425a6.14,6.14,0,0,1,.81.09A9.17,9.17,0,0,1,433.42,427.43Z"/><path class="cls-4" d="M392.25,399.12a12.67,12.67,0,1,1,12.67,12.67A12.67,12.67,0,0,1,392.25,399.12Z"/><path class="cls-4" d="M506.25,427.43a10.08,10.08,0,0,1-.28,2.33v29.19a3.29,3.29,0,0,1-3,3.49h-6.29a3.29,3.29,0,0,1-3-3.49V436.46h-1.13v79.38a3,3,0,0,1-3,3h-6a3,3,0,0,1-3-3V478.53h-5.33v37.88a3,3,0,0,1-3,3h-6a3,3,0,0,1-3-3V436.46h-1.12v22a3.26,3.26,0,0,1-3,3.44h-6.29a3.26,3.26,0,0,1-3-3.44V429.76a10,10,0,0,1-.28-2.33,9.23,9.23,0,0,1,6.74-9,8,8,0,0,1,1.65-.26h40.22a6.14,6.14,0,0,1,.81.09A9.17,9.17,0,0,1,506.25,427.43Z"/><path class="cls-4" d="M465.08,399.12a12.67,12.67,0,1,1,12.67,12.67A12.67,12.67,0,0,1,465.08,399.12Z"/><path class="cls-4" d="M579.08,427.43a10.08,10.08,0,0,1-.28,2.33v29.19a3.29,3.29,0,0,1-3,3.49h-6.29a3.29,3.29,0,0,1-3-3.49V436.46h-1.13v79.38a3,3,0,0,1-3,3h-6a3,3,0,0,1-3-3V478.53h-5.33v37.88a3,3,0,0,1-3,3h-6a3,3,0,0,1-3-3V436.46h-1.12v22a3.26,3.26,0,0,1-3,3.44h-6.29a3.26,3.26,0,0,1-3-3.44V429.76a10,10,0,0,1-.28-2.33,9.23,9.23,0,0,1,6.74-9,8,8,0,0,1,1.65-.26h40.22a6.14,6.14,0,0,1,.81.09A9.17,9.17,0,0,1,579.08,427.43Z"/><path class="cls-4" d="M537.91,399.12a12.67,12.67,0,1,1,12.67,12.67A12.67,12.67,0,0,1,537.91,399.12Z"/><path class="cls-4" d="M651.91,427.43a10,10,0,0,1-.28,2.33v29.19a3.29,3.29,0,0,1-3,3.49H642.3a3.29,3.29,0,0,1-3-3.49V436.46h-1.13v79.38a3,3,0,0,1-3,3h-6a3,3,0,0,1-3-3V478.53h-5.33v37.88a3,3,0,0,1-3,3h-6a3,3,0,0,1-3-3V436.46h-1.12v22a3.26,3.26,0,0,1-3,3.44h-6.29a3.26,3.26,0,0,1-3-3.44V429.76a10,10,0,0,1-.28-2.33,9.23,9.23,0,0,1,6.74-9,8,8,0,0,1,1.65-.26h40.22a6.14,6.14,0,0,1,.81.09A9.17,9.17,0,0,1,651.91,427.43Z"/><path class="cls-4" d="M610.74,399.12a12.67,12.67,0,1,1,12.67,12.67A12.67,12.67,0,0,1,610.74,399.12Z"/><path class="cls-4" d="M724.74,427.43a10.08,10.08,0,0,1-.28,2.33v29.19a3.29,3.29,0,0,1-3,3.49h-6.29a3.29,3.29,0,0,1-3-3.49V436.46H711v79.38a3,3,0,0,1-3,3h-6a3,3,0,0,1-3-3V478.53h-5.33v37.88a3,3,0,0,1-3,3h-6a3,3,0,0,1-3-3V436.46h-1.12v22a3.26,3.26,0,0,1-3,3.44H671a3.26,3.26,0,0,1-3-3.44V429.76a10,10,0,0,1-.28-2.33,9.23,9.23,0,0,1,6.74-9,8,8,0,0,1,1.65-.26h40.22a6.14,6.14,0,0,1,.81.09A9.17,9.17,0,0,1,724.74,427.43Z"/><path class="cls-4" d="M683.57,399.12a12.67,12.67,0,1,1,12.67,12.67A12.67,12.67,0,0,1,683.57,399.12Z"/><path class="cls-4" d="M294.09,278.61a10.08,10.08,0,0,1-.28,2.33v29.19a3.29,3.29,0,0,1-3,3.49h-6.29a3.29,3.29,0,0,1-3-3.49V287.64h-1.13V367a3,3,0,0,1-3,3h-6a3,3,0,0,1-3-3V329.7h-5.33v37.88a3,3,0,0,1-3,3h-6a3,3,0,0,1-3-3V287.64h-1.12v22a3.26,3.26,0,0,1-3,3.44H240.4a3.26,3.26,0,0,1-3-3.44V280.93a10,10,0,0,1-.28-2.33,9.23,9.23,0,0,1,6.74-9,8,8,0,0,1,1.65-.26H285.7a6.14,6.14,0,0,1,.81.09A9.17,9.17,0,0,1,294.09,278.61Z"/><path class="cls-4" d="M252.93,250.3A12.67,12.67,0,1,1,265.6,263,12.67,12.67,0,0,1,252.93,250.3Z"/><path class="cls-4" d="M366.92,278.61a10.08,10.08,0,0,1-.28,2.33v29.19a3.29,3.29,0,0,1-3,3.49h-6.29a3.29,3.29,0,0,1-3-3.49V287.64h-1.13V367a3,3,0,0,1-3,3h-6a3,3,0,0,1-3-3V329.7h-5.33v37.88a3,3,0,0,1-3,3h-6a3,3,0,0,1-3-3V287.64h-1.12v22a3.26,3.26,0,0,1-3,3.44h-6.29a3.26,3.26,0,0,1-3-3.44V280.93a10,10,0,0,1-.28-2.33,9.23,9.23,0,0,1,6.74-9,8,8,0,0,1,1.65-.26h40.22a6.14,6.14,0,0,1,.81.09A9.17,9.17,0,0,1,366.92,278.61Z"/><path class="cls-4" d="M325.76,250.3A12.67,12.67,0,1,1,338.43,263,12.67,12.67,0,0,1,325.76,250.3Z"/><path class="cls-4" d="M439.75,278.61a10,10,0,0,1-.28,2.33v29.19a3.29,3.29,0,0,1-3,3.49h-6.29a3.29,3.29,0,0,1-3-3.49V287.64H426V367a3,3,0,0,1-3,3h-6a3,3,0,0,1-3-3V329.7h-5.33v37.88a3,3,0,0,1-3,3h-6a3,3,0,0,1-3-3V287.64h-1.12v22a3.26,3.26,0,0,1-3,3.44h-6.29a3.26,3.26,0,0,1-3-3.44V280.93a10,10,0,0,1-.28-2.33,9.23,9.23,0,0,1,6.74-9,8,8,0,0,1,1.65-.26h40.22a6.14,6.14,0,0,1,.81.09A9.17,9.17,0,0,1,439.75,278.61Z"/><path class="cls-4" d="M398.59,250.3A12.67,12.67,0,1,1,411.26,263,12.67,12.67,0,0,1,398.59,250.3Z"/><path class="cls-4" d="M512.58,278.61a10,10,0,0,1-.28,2.33v29.19a3.29,3.29,0,0,1-3,3.49H503a3.29,3.29,0,0,1-3-3.49V287.64h-1.13V367a3,3,0,0,1-3,3h-6a3,3,0,0,1-3-3V329.7h-5.33v37.88a3,3,0,0,1-3,3h-6a3,3,0,0,1-3-3V287.64h-1.12v22a3.26,3.26,0,0,1-3,3.44h-6.29a3.26,3.26,0,0,1-3-3.44V280.93a10,10,0,0,1-.28-2.33,9.23,9.23,0,0,1,6.74-9,8,8,0,0,1,1.65-.26h40.22a6.14,6.14,0,0,1,.81.09A9.17,9.17,0,0,1,512.58,278.61Z"/><path class="cls-4" d="M471.42,250.3A12.67,12.67,0,1,1,484.08,263,12.67,12.67,0,0,1,471.42,250.3Z"/><path class="cls-4" d="M585.41,278.61a10.08,10.08,0,0,1-.28,2.33v29.19a3.29,3.29,0,0,1-3,3.49h-6.29a3.29,3.29,0,0,1-3-3.49V287.64h-1.13V367a3,3,0,0,1-3,3h-6a3,3,0,0,1-3-3V329.7h-5.33v37.88a3,3,0,0,1-3,3h-6a3,3,0,0,1-3-3V287.64H541v22a3.26,3.26,0,0,1-3,3.44h-6.29a3.26,3.26,0,0,1-3-3.44V280.93a10,10,0,0,1-.28-2.33,9.23,9.23,0,0,1,6.74-9,8,8,0,0,1,1.65-.26H577a6.14,6.14,0,0,1,.81.09A9.17,9.17,0,0,1,585.41,278.61Z"/><path class="cls-4" d="M544.25,250.3A12.67,12.67,0,1,1,556.91,263,12.67,12.67,0,0,1,544.25,250.3Z"/><path class="cls-4" d="M658.24,278.61a10,10,0,0,1-.28,2.33v29.19a3.29,3.29,0,0,1-3,3.49h-6.29a3.29,3.29,0,0,1-3-3.49V287.64h-1.13V367a3,3,0,0,1-3,3h-6a3,3,0,0,1-3-3V329.7h-5.33v37.88a3,3,0,0,1-3,3h-6a3,3,0,0,1-3-3V287.64h-1.12v22a3.26,3.26,0,0,1-3,3.44h-6.29a3.26,3.26,0,0,1-3-3.44V280.93a10,10,0,0,1-.28-2.33,9.23,9.23,0,0,1,6.74-9,8,8,0,0,1,1.65-.26h40.22a6.14,6.14,0,0,1,.81.09A9.17,9.17,0,0,1,658.24,278.61Z"/><path class="cls-4" d="M617.07,250.3A12.67,12.67,0,1,1,629.74,263,12.67,12.67,0,0,1,617.07,250.3Z"/><path class="cls-4" d="M727.9,278.61a10,10,0,0,1-.28,2.33v29.19a3.29,3.29,0,0,1-3,3.49H718.3a3.29,3.29,0,0,1-3-3.49V287.64h-1.13V367a3,3,0,0,1-3,3h-6a3,3,0,0,1-3-3V329.7h-5.33v37.88a3,3,0,0,1-3,3h-6a3,3,0,0,1-3-3V287.64h-1.12v22a3.26,3.26,0,0,1-3,3.44h-6.29a3.26,3.26,0,0,1-3-3.44V280.93a10,10,0,0,1-.28-2.33,9.23,9.23,0,0,1,6.74-9,8,8,0,0,1,1.65-.26h40.22a6.14,6.14,0,0,1,.81.09A9.17,9.17,0,0,1,727.9,278.61Z"/><path class="cls-4" d="M686.74,250.3A12.67,12.67,0,1,1,699.41,263,12.67,12.67,0,0,1,686.74,250.3Z"/><path class="cls-4" d="M800.73,278.61a10.08,10.08,0,0,1-.28,2.33v29.19a3.29,3.29,0,0,1-3,3.49h-6.29a3.29,3.29,0,0,1-3-3.49V287.64H787V367a3,3,0,0,1-3,3h-6a3,3,0,0,1-3-3V329.7h-5.33v37.88a3,3,0,0,1-3,3h-6a3,3,0,0,1-3-3V287.64h-1.12v22a3.26,3.26,0,0,1-3,3.44H747a3.26,3.26,0,0,1-3-3.44V280.93a10,10,0,0,1-.28-2.33,9.23,9.23,0,0,1,6.74-9,8,8,0,0,1,1.65-.26h40.22a6.14,6.14,0,0,1,.81.09A9.17,9.17,0,0,1,800.73,278.61Z"/><path class="cls-4" d="M759.57,250.3A12.67,12.67,0,1,1,772.24,263,12.67,12.67,0,0,1,759.57,250.3Z"/><g class="cls-21"><g class="cls-22"><rect class="cls-4" x="800.73" y="101.47" width="88.66" height="132.99"/></g><rect class="cls-4" x="62.94" y="-911.81" width="1187.44" height="2112.06"/></g><path class="cls-23" d="M873.56,126.61a10,10,0,0,1-.28,2.33v29.19a3.29,3.29,0,0,1-3,3.49H864a3.29,3.29,0,0,1-3-3.49V135.65H859.8V215a3,3,0,0,1-3,3h-6a3,3,0,0,1-3-3V177.71H842.4v37.88a3,3,0,0,1-3,3h-6a3,3,0,0,1-3-3V135.65H829.2v22a3.26,3.26,0,0,1-3,3.44h-6.29a3.26,3.26,0,0,1-3-3.44V128.94a10,10,0,0,1-.28-2.33,9.23,9.23,0,0,1,6.74-9,8,8,0,0,1,1.65-.26h40.22a6.15,6.15,0,0,1,.81.09,9.17,9.17,0,0,1,7.58,9.21"/><path class="cls-4" d="M832.4,98.3A12.67,12.67,0,1,1,845.07,111,12.67,12.67,0,0,1,832.4,98.3Z"/><path class="cls-4" d="M946.39,126.61a10.08,10.08,0,0,1-.28,2.33v29.19a3.29,3.29,0,0,1-3,3.49h-6.29a3.29,3.29,0,0,1-3-3.49V135.65h-1.13V215a3,3,0,0,1-3,3h-6a3,3,0,0,1-3-3V177.71h-5.33v37.88a3,3,0,0,1-3,3h-6a3,3,0,0,1-3-3V135.65H902v22a3.26,3.26,0,0,1-3,3.44H892.7a3.26,3.26,0,0,1-3-3.44V128.94a10,10,0,0,1-.28-2.33,9.23,9.23,0,0,1,6.74-9,8,8,0,0,1,1.65-.26H938a6.15,6.15,0,0,1,.81.09A9.17,9.17,0,0,1,946.39,126.61Z"/><path class="cls-4" d="M905.23,98.3A12.67,12.67,0,1,1,917.9,111,12.67,12.67,0,0,1,905.23,98.3Z"/><path class="cls-4" d="M1019.22,126.61a10.08,10.08,0,0,1-.28,2.33v29.19a3.29,3.29,0,0,1-3,3.49h-6.29a3.29,3.29,0,0,1-3-3.49V135.65h-1.13V215a3,3,0,0,1-3,3h-6a3,3,0,0,1-3-3V177.71h-5.33v37.88a3,3,0,0,1-3,3h-6a3,3,0,0,1-3-3V135.65h-1.12v22a3.26,3.26,0,0,1-3,3.44h-6.29a3.26,3.26,0,0,1-3-3.44V128.94a10,10,0,0,1-.28-2.33,9.23,9.23,0,0,1,6.74-9,8,8,0,0,1,1.65-.26h40.22a6.15,6.15,0,0,1,.81.09A9.17,9.17,0,0,1,1019.22,126.61Z"/><path class="cls-4" d="M978.06,98.3A12.67,12.67,0,1,1,990.73,111,12.67,12.67,0,0,1,978.06,98.3Z"/><path class="cls-4" d="M1092.05,126.61a10.08,10.08,0,0,1-.28,2.33v29.19a3.29,3.29,0,0,1-3,3.49h-6.29a3.29,3.29,0,0,1-3-3.49V135.65h-1.13V215a3,3,0,0,1-3,3h-6a3,3,0,0,1-3-3V177.71h-5.33v37.88a3,3,0,0,1-3,3h-6a3,3,0,0,1-3-3V135.65h-1.12v22a3.26,3.26,0,0,1-3,3.44h-6.29a3.26,3.26,0,0,1-3-3.44V128.94a10,10,0,0,1-.28-2.33,9.23,9.23,0,0,1,6.74-9,8,8,0,0,1,1.65-.26h40.22a6.15,6.15,0,0,1,.81.09A9.17,9.17,0,0,1,1092.05,126.61Z"/><path class="cls-4" d="M1050.89,98.3A12.67,12.67,0,1,1,1063.56,111,12.67,12.67,0,0,1,1050.89,98.3Z"/><path class="cls-4" d="M294.09,576.26a10,10,0,0,1-.28,2.33v29.19a3.29,3.29,0,0,1-3,3.49h-6.29a3.29,3.29,0,0,1-3-3.49V585.29h-1.13v79.38a3,3,0,0,1-3,3h-6a3,3,0,0,1-3-3V627.35h-5.33v37.88a3,3,0,0,1-3,3h-6a3,3,0,0,1-3-3V585.29h-1.12v22a3.26,3.26,0,0,1-3,3.44H240.4a3.26,3.26,0,0,1-3-3.44V578.58a10,10,0,0,1-.28-2.33,9.23,9.23,0,0,1,6.74-9,8,8,0,0,1,1.65-.26H285.7a6.14,6.14,0,0,1,.81.09A9.17,9.17,0,0,1,294.09,576.26Z"/><path class="cls-4" d="M252.93,547.95a12.67,12.67,0,1,1,12.67,12.67A12.67,12.67,0,0,1,252.93,547.95Z"/><path class="cls-4" d="M363.75,576.26a10.08,10.08,0,0,1-.28,2.33v29.19a3.29,3.29,0,0,1-3,3.49h-6.29a3.29,3.29,0,0,1-3-3.49V585.29H350v79.38a3,3,0,0,1-3,3h-6a3,3,0,0,1-3-3V627.35h-5.33v37.88a3,3,0,0,1-3,3h-6a3,3,0,0,1-3-3V585.29h-1.12v22a3.26,3.26,0,0,1-3,3.44h-6.29a3.26,3.26,0,0,1-3-3.44V578.58a10,10,0,0,1-.28-2.33,9.23,9.23,0,0,1,6.74-9,8,8,0,0,1,1.65-.26h40.22a6.14,6.14,0,0,1,.81.09A9.17,9.17,0,0,1,363.75,576.26Z"/><path class="cls-4" d="M322.59,547.95a12.67,12.67,0,1,1,12.67,12.67A12.67,12.67,0,0,1,322.59,547.95Z"/><path class="cls-4" d="M436.58,576.26a10.08,10.08,0,0,1-.28,2.33v29.19a3.29,3.29,0,0,1-3,3.49H427a3.29,3.29,0,0,1-3-3.49V585.29h-1.13v79.38a3,3,0,0,1-3,3h-6a3,3,0,0,1-3-3V627.35h-5.33v37.88a3,3,0,0,1-3,3h-6a3,3,0,0,1-3-3V585.29h-1.12v22a3.26,3.26,0,0,1-3,3.44H382.9a3.26,3.26,0,0,1-3-3.44V578.58a10,10,0,0,1-.28-2.33,9.23,9.23,0,0,1,6.74-9A8,8,0,0,1,388,567H428.2a6.14,6.14,0,0,1,.81.09A9.17,9.17,0,0,1,436.58,576.26Z"/><path class="cls-4" d="M395.42,547.95a12.67,12.67,0,1,1,12.67,12.67A12.67,12.67,0,0,1,395.42,547.95Z"/><path class="cls-4" d="M509.41,576.26a10.08,10.08,0,0,1-.28,2.33v29.19a3.29,3.29,0,0,1-3,3.49h-6.29a3.29,3.29,0,0,1-3-3.49V585.29h-1.13v79.38a3,3,0,0,1-3,3h-6a3,3,0,0,1-3-3V627.35h-5.33v37.88a3,3,0,0,1-3,3h-6a3,3,0,0,1-3-3V585.29h-1.12v22a3.26,3.26,0,0,1-3,3.44h-6.29a3.26,3.26,0,0,1-3-3.44V578.58a10,10,0,0,1-.28-2.33,9.23,9.23,0,0,1,6.74-9,8,8,0,0,1,1.65-.26H501a6.14,6.14,0,0,1,.81.09A9.17,9.17,0,0,1,509.41,576.26Z"/><path class="cls-4" d="M468.25,547.95a12.67,12.67,0,1,1,12.67,12.67A12.67,12.67,0,0,1,468.25,547.95Z"/><path class="cls-4" d="M1092.05,576.26a10,10,0,0,1-.28,2.33v29.19a3.29,3.29,0,0,1-3,3.49h-6.29a3.29,3.29,0,0,1-3-3.49V585.29h-1.13v79.38a3,3,0,0,1-3,3h-6a3,3,0,0,1-3-3V627.35h-5.33v37.88a3,3,0,0,1-3,3h-6a3,3,0,0,1-3-3V585.29h-1.12v22a3.26,3.26,0,0,1-3,3.44h-6.29a3.26,3.26,0,0,1-3-3.44V578.58a10,10,0,0,1-.28-2.33,9.23,9.23,0,0,1,6.74-9,8,8,0,0,1,1.65-.26h40.22a6.14,6.14,0,0,1,.81.09A9.17,9.17,0,0,1,1092.05,576.26Z"/><path class="cls-4" d="M1050.89,547.95a12.67,12.67,0,1,1,12.67,12.67A12.67,12.67,0,0,1,1050.89,547.95Z"/><path class="cls-4" d="M870.4,427.43a10.08,10.08,0,0,1-.28,2.33v29.19a3.29,3.29,0,0,1-3,3.49h-6.29a3.29,3.29,0,0,1-3-3.49V436.46h-1.13v79.38a3,3,0,0,1-3,3h-6a3,3,0,0,1-3-3V478.53h-5.33v37.88a3,3,0,0,1-3,3h-6a3,3,0,0,1-3-3V436.46H826v22a3.26,3.26,0,0,1-3,3.44h-6.29a3.26,3.26,0,0,1-3-3.44V429.76a10,10,0,0,1-.28-2.33,9.23,9.23,0,0,1,6.74-9,8,8,0,0,1,1.65-.26H862a6.14,6.14,0,0,1,.81.09A9.17,9.17,0,0,1,870.4,427.43Z"/><path class="cls-4" d="M829.23,399.12a12.67,12.67,0,1,1,12.67,12.67A12.67,12.67,0,0,1,829.23,399.12Z"/><path class="cls-4" d="M943.22,427.43a10,10,0,0,1-.28,2.33v29.19a3.29,3.29,0,0,1-3,3.49h-6.29a3.29,3.29,0,0,1-3-3.49V436.46h-1.13v79.38a3,3,0,0,1-3,3h-6a3,3,0,0,1-3-3V478.53h-5.33v37.88a3,3,0,0,1-3,3h-6a3,3,0,0,1-3-3V436.46h-1.12v22a3.26,3.26,0,0,1-3,3.44h-6.29a3.26,3.26,0,0,1-3-3.44V429.76a10,10,0,0,1-.28-2.33,9.23,9.23,0,0,1,6.74-9,8,8,0,0,1,1.65-.26h40.22a6.14,6.14,0,0,1,.81.09A9.17,9.17,0,0,1,943.22,427.43Z"/><path class="cls-4" d="M902.06,399.12a12.67,12.67,0,1,1,12.67,12.67A12.67,12.67,0,0,1,902.06,399.12Z"/><path class="cls-4" d="M1016.05,427.43a10,10,0,0,1-.28,2.33v29.19a3.29,3.29,0,0,1-3,3.49h-6.29a3.29,3.29,0,0,1-3-3.49V436.46h-1.13v79.38a3,3,0,0,1-3,3h-6a3,3,0,0,1-3-3V478.53h-5.33v37.88a3,3,0,0,1-3,3h-6a3,3,0,0,1-3-3V436.46h-1.12v22a3.26,3.26,0,0,1-3,3.44h-6.29a3.26,3.26,0,0,1-3-3.44V429.76a10,10,0,0,1-.28-2.33,9.23,9.23,0,0,1,6.74-9,8,8,0,0,1,1.65-.26h40.22a6.14,6.14,0,0,1,.81.09A9.17,9.17,0,0,1,1016.05,427.43Z"/><path class="cls-4" d="M974.89,399.12a12.67,12.67,0,1,1,12.67,12.67A12.67,12.67,0,0,1,974.89,399.12Z"/><path class="cls-4" d="M1088.88,427.43a10,10,0,0,1-.28,2.33v29.19a3.29,3.29,0,0,1-3,3.49h-6.29a3.29,3.29,0,0,1-3-3.49V436.46h-1.13v79.38a3,3,0,0,1-3,3h-6a3,3,0,0,1-3-3V478.53h-5.33v37.88a3,3,0,0,1-3,3h-6a3,3,0,0,1-3-3V436.46h-1.12v22a3.26,3.26,0,0,1-3,3.44h-6.29a3.26,3.26,0,0,1-3-3.44V429.76a10,10,0,0,1-.28-2.33,9.23,9.23,0,0,1,6.74-9,8,8,0,0,1,1.65-.26h40.22a6.14,6.14,0,0,1,.81.09A9.17,9.17,0,0,1,1088.88,427.43Z"/><path class="cls-4" d="M1047.72,399.12a12.67,12.67,0,1,1,12.67,12.67A12.67,12.67,0,0,1,1047.72,399.12Z"/><path class="cls-4" d="M873.56,576.26a10,10,0,0,1-.28,2.33v29.19a3.29,3.29,0,0,1-3,3.49H864a3.29,3.29,0,0,1-3-3.49V585.29H859.8v79.38a3,3,0,0,1-3,3h-6a3,3,0,0,1-3-3V627.35H842.4v37.88a3,3,0,0,1-3,3h-6a3,3,0,0,1-3-3V585.29H829.2v22a3.26,3.26,0,0,1-3,3.44h-6.29a3.26,3.26,0,0,1-3-3.44V578.58a10,10,0,0,1-.28-2.33,9.23,9.23,0,0,1,6.74-9A8,8,0,0,1,825,567h40.22a6.14,6.14,0,0,1,.81.09A9.17,9.17,0,0,1,873.56,576.26Z"/><path class="cls-4" d="M832.4,547.95a12.67,12.67,0,1,1,12.67,12.67A12.67,12.67,0,0,1,832.4,547.95Z"/><path class="cls-4" d="M946.39,576.26a10.08,10.08,0,0,1-.28,2.33v29.19a3.29,3.29,0,0,1-3,3.49h-6.29a3.29,3.29,0,0,1-3-3.49V585.29h-1.13v79.38a3,3,0,0,1-3,3h-6a3,3,0,0,1-3-3V627.35h-5.33v37.88a3,3,0,0,1-3,3h-6a3,3,0,0,1-3-3V585.29H902v22a3.26,3.26,0,0,1-3,3.44H892.7a3.26,3.26,0,0,1-3-3.44V578.58a10,10,0,0,1-.28-2.33,9.23,9.23,0,0,1,6.74-9,8,8,0,0,1,1.65-.26H938a6.14,6.14,0,0,1,.81.09A9.17,9.17,0,0,1,946.39,576.26Z"/><path class="cls-4" d="M905.23,547.95a12.67,12.67,0,1,1,12.67,12.67A12.67,12.67,0,0,1,905.23,547.95Z"/><path class="cls-4" d="M1019.22,576.26a10,10,0,0,1-.28,2.33v29.19a3.29,3.29,0,0,1-3,3.49h-6.29a3.29,3.29,0,0,1-3-3.49V585.29h-1.13v79.38a3,3,0,0,1-3,3h-6a3,3,0,0,1-3-3V627.35h-5.33v37.88a3,3,0,0,1-3,3h-6a3,3,0,0,1-3-3V585.29h-1.12v22a3.26,3.26,0,0,1-3,3.44h-6.29a3.26,3.26,0,0,1-3-3.44V578.58a10,10,0,0,1-.28-2.33,9.23,9.23,0,0,1,6.74-9,8,8,0,0,1,1.65-.26h40.22a6.14,6.14,0,0,1,.81.09A9.17,9.17,0,0,1,1019.22,576.26Z"/><path class="cls-4" d="M978.06,547.95a12.67,12.67,0,1,1,12.67,12.67A12.67,12.67,0,0,1,978.06,547.95Z"/><path class="cls-4" d="M873.56,278.61a10,10,0,0,1-.28,2.33v29.19a3.29,3.29,0,0,1-3,3.49H864a3.29,3.29,0,0,1-3-3.49V287.64H859.8V367a3,3,0,0,1-3,3h-6a3,3,0,0,1-3-3V329.7H842.4v37.88a3,3,0,0,1-3,3h-6a3,3,0,0,1-3-3V287.64H829.2v22a3.26,3.26,0,0,1-3,3.44h-6.29a3.26,3.26,0,0,1-3-3.44V280.93a10,10,0,0,1-.28-2.33,9.23,9.23,0,0,1,6.74-9,8,8,0,0,1,1.65-.26h40.22a6.14,6.14,0,0,1,.81.09A9.17,9.17,0,0,1,873.56,278.61Z"/><path class="cls-4" d="M832.4,250.3A12.67,12.67,0,1,1,845.07,263,12.67,12.67,0,0,1,832.4,250.3Z"/><path class="cls-4" d="M946.39,278.61a10.08,10.08,0,0,1-.28,2.33v29.19a3.29,3.29,0,0,1-3,3.49h-6.29a3.29,3.29,0,0,1-3-3.49V287.64h-1.13V367a3,3,0,0,1-3,3h-6a3,3,0,0,1-3-3V329.7h-5.33v37.88a3,3,0,0,1-3,3h-6a3,3,0,0,1-3-3V287.64H902v22a3.26,3.26,0,0,1-3,3.44H892.7a3.26,3.26,0,0,1-3-3.44V280.93a10,10,0,0,1-.28-2.33,9.23,9.23,0,0,1,6.74-9,8,8,0,0,1,1.65-.26H938a6.14,6.14,0,0,1,.81.09A9.17,9.17,0,0,1,946.39,278.61Z"/><path class="cls-4" d="M905.23,250.3A12.67,12.67,0,1,1,917.9,263,12.67,12.67,0,0,1,905.23,250.3Z"/><path class="cls-4" d="M1019.22,278.61a10.08,10.08,0,0,1-.28,2.33v29.19a3.29,3.29,0,0,1-3,3.49h-6.29a3.29,3.29,0,0,1-3-3.49V287.64h-1.13V367a3,3,0,0,1-3,3h-6a3,3,0,0,1-3-3V329.7h-5.33v37.88a3,3,0,0,1-3,3h-6a3,3,0,0,1-3-3V287.64h-1.12v22a3.26,3.26,0,0,1-3,3.44h-6.29a3.26,3.26,0,0,1-3-3.44V280.93a10,10,0,0,1-.28-2.33,9.23,9.23,0,0,1,6.74-9,8,8,0,0,1,1.65-.26h40.22a6.14,6.14,0,0,1,.81.09A9.17,9.17,0,0,1,1019.22,278.61Z"/><path class="cls-4" d="M978.06,250.3A12.67,12.67,0,1,1,990.73,263,12.67,12.67,0,0,1,978.06,250.3Z"/><path class="cls-4" d="M1092.05,278.61a10.08,10.08,0,0,1-.28,2.33v29.19a3.29,3.29,0,0,1-3,3.49h-6.29a3.29,3.29,0,0,1-3-3.49V287.64h-1.13V367a3,3,0,0,1-3,3h-6a3,3,0,0,1-3-3V329.7h-5.33v37.88a3,3,0,0,1-3,3h-6a3,3,0,0,1-3-3V287.64h-1.12v22a3.26,3.26,0,0,1-3,3.44h-6.29a3.26,3.26,0,0,1-3-3.44V280.93a10,10,0,0,1-.28-2.33,9.23,9.23,0,0,1,6.74-9,8,8,0,0,1,1.65-.26h40.22a6.14,6.14,0,0,1,.81.09A9.17,9.17,0,0,1,1092.05,278.61Z"/><path class="cls-4" d="M1050.89,250.3A12.67,12.67,0,1,1,1063.56,263,12.67,12.67,0,0,1,1050.89,250.3Z"/><path class="cls-4" d="M582.24,576.26a10.08,10.08,0,0,1-.28,2.33v29.19a3.29,3.29,0,0,1-3,3.49h-6.29a3.29,3.29,0,0,1-3-3.49V585.29h-1.13v79.38a3,3,0,0,1-3,3h-6a3,3,0,0,1-3-3V627.35h-5.33v37.88a3,3,0,0,1-3,3h-6a3,3,0,0,1-3-3V585.29h-1.12v22a3.26,3.26,0,0,1-3,3.44h-6.29a3.26,3.26,0,0,1-3-3.44V578.58a10,10,0,0,1-.28-2.33,9.23,9.23,0,0,1,6.74-9,8,8,0,0,1,1.65-.26h40.22a6.14,6.14,0,0,1,.81.09A9.17,9.17,0,0,1,582.24,576.26Z"/><path class="cls-4" d="M541.08,547.95a12.67,12.67,0,1,1,12.67,12.67A12.67,12.67,0,0,1,541.08,547.95Z"/><path class="cls-4" d="M655.07,576.26a10,10,0,0,1-.28,2.33v29.19a3.29,3.29,0,0,1-3,3.49h-6.29a3.29,3.29,0,0,1-3-3.49V585.29h-1.13v79.38a3,3,0,0,1-3,3h-6a3,3,0,0,1-3-3V627.35h-5.33v37.88a3,3,0,0,1-3,3h-6a3,3,0,0,1-3-3V585.29h-1.12v22a3.26,3.26,0,0,1-3,3.44h-6.29a3.26,3.26,0,0,1-3-3.44V578.58a10,10,0,0,1-.28-2.33,9.23,9.23,0,0,1,6.74-9,8,8,0,0,1,1.65-.26h40.22a6.14,6.14,0,0,1,.81.09A9.17,9.17,0,0,1,655.07,576.26Z"/><path class="cls-4" d="M613.91,547.95a12.67,12.67,0,1,1,12.67,12.67A12.67,12.67,0,0,1,613.91,547.95Z"/><path class="cls-4" d="M727.9,576.26a10.08,10.08,0,0,1-.28,2.33v29.19a3.29,3.29,0,0,1-3,3.49H718.3a3.29,3.29,0,0,1-3-3.49V585.29h-1.13v79.38a3,3,0,0,1-3,3h-6a3,3,0,0,1-3-3V627.35h-5.33v37.88a3,3,0,0,1-3,3h-6a3,3,0,0,1-3-3V585.29h-1.12v22a3.26,3.26,0,0,1-3,3.44h-6.29a3.26,3.26,0,0,1-3-3.44V578.58a10,10,0,0,1-.28-2.33,9.23,9.23,0,0,1,6.74-9,8,8,0,0,1,1.65-.26h40.22a6.14,6.14,0,0,1,.81.09A9.17,9.17,0,0,1,727.9,576.26Z"/><path class="cls-4" d="M686.74,547.95a12.67,12.67,0,1,1,12.67,12.67A12.67,12.67,0,0,1,686.74,547.95Z"/><path class="cls-4" d="M800.73,576.26a10,10,0,0,1-.28,2.33v29.19a3.29,3.29,0,0,1-3,3.49h-6.29a3.29,3.29,0,0,1-3-3.49V585.29H787v79.38a3,3,0,0,1-3,3h-6a3,3,0,0,1-3-3V627.35h-5.33v37.88a3,3,0,0,1-3,3h-6a3,3,0,0,1-3-3V585.29h-1.12v22a3.26,3.26,0,0,1-3,3.44H747a3.26,3.26,0,0,1-3-3.44V578.58a10,10,0,0,1-.28-2.33,9.23,9.23,0,0,1,6.74-9,8,8,0,0,1,1.65-.26h40.22a6.14,6.14,0,0,1,.81.09A9.17,9.17,0,0,1,800.73,576.26Z"/><path class="cls-4" d="M759.57,547.95a12.67,12.67,0,1,1,12.67,12.67A12.67,12.67,0,0,1,759.57,547.95Z"/></svg>