<svg xmlns="http://www.w3.org/2000/svg" viewBox="0 0 343.59 511.95"><defs><style>.cls-1{fill:#333;}.cls-2,.cls-8{fill:#3498db;}.cls-3{fill:none;stroke:#000;stroke-miterlimit:10;stroke-width:3px;}.cls-4{font-size:18px;fill:#fff;font-family:Rubik-Regular, Rubik;}.cls-5{letter-spacing:-0.02em;}.cls-6{letter-spacing:-0.03em;}.cls-7{letter-spacing:-0.01em;}.cls-8{font-size:22px;font-family:Rubik-Medium, Rubik;}.cls-9{letter-spacing:-0.01em;}.cls-10{letter-spacing:0em;}.cls-11{letter-spacing:-0.01em;}.cls-12{letter-spacing:-0.02em;}.cls-13{letter-spacing:-0.01em;}</style></defs><title>Stapel mobil</title><g id="Layer_2" data-name="Layer 2"><g id="Layer_1-2" data-name="Layer 1"><rect class="cls-1" x="179.81" y="-32.95" width="49.2" height="137.5" transform="translate(240.21 -168.61) rotate(90)"/><rect class="cls-1" x="190.31" y="27.8" width="49.2" height="158.5" transform="translate(321.96 -107.85) rotate(90)"/><rect class="cls-1" x="190.31" y="97.36" width="49.2" height="158.5" transform="translate(391.52 -38.3) rotate(90)"/><rect class="cls-1" x="209.81" y="149.11" width="49.2" height="197.5" transform="translate(482.27 13.45) rotate(90)"/><rect class="cls-1" x="199.81" y="230.36" width="49.2" height="177.5" transform="translate(543.52 94.7) rotate(90)"/><rect class="cls-1" x="193.81" y="305.92" width="49.2" height="165.5" transform="translate(607.08 170.26) rotate(90)"/><rect class="cls-1" x="213.31" y="357.67" width="49.2" height="204.5" transform="translate(697.83 222.01) rotate(90)"/><rect class="cls-2" x="141.75" y="5.12" width="49.2" height="61.38" transform="translate(202.15 -130.54) rotate(90)"/><rect class="cls-2" x="131" y="87.12" width="49.2" height="39.88" transform="translate(262.65 -48.54) rotate(90)"/><rect class="cls-2" x="139.37" y="148.3" width="49.2" height="56.63" transform="translate(340.58 12.64) rotate(90)"/><rect class="cls-2" x="174.31" y="184.61" width="49.2" height="126.5" transform="translate(446.77 48.95) rotate(90)"/><rect class="cls-2" x="143.31" y="286.86" width="49.2" height="64.5" transform="translate(487.02 151.2) rotate(90)"/><rect class="cls-2" x="147.81" y="351.92" width="49.2" height="73.5" transform="translate(561.08 216.26) rotate(90)"/><rect class="cls-2" x="162.81" y="408.17" width="49.2" height="103.5" transform="translate(647.33 272.51) rotate(90)"/><line class="cls-3" x1="134.3" x2="134.3" y2="510.45"/><line class="cls-3" x1="343.59" y1="510.45" x2="132.8" y2="510.45"/><text class="cls-4" transform="translate(140.38 41.01)"><tspan class="cls-5">4</tspan><tspan class="cls-6" x="10.8" y="0">7</tspan><tspan x="19.42" y="0">6</tspan></text><text class="cls-4" transform="translate(140.38 112.27)">263</text><text class="cls-4" transform="translate(212.23 41.01)">1797</text><text class="cls-4" transform="translate(204.41 112.27)">2390</text><text class="cls-4" transform="translate(140.38 181.82)">463</text><text class="cls-4" transform="translate(214.91 181.82)">2387</text><text class="cls-4" transform="translate(140.38 253.07)">1804</text><text class="cls-4" transform="translate(273.16 253.07)">3323</text><text class="cls-4" transform="translate(140.38 324.32)">668</text><text class="cls-4" transform="translate(224.41 324.32)">2630</text><text class="cls-4" transform="translate(140.38 393.88)">756</text><text class="cls-4" transform="translate(224.41 393.88)"><tspan class="cls-7">2</tspan><tspan x="10.33" y="0">455</tspan></text><text class="cls-4" transform="translate(140.38 465.13)">1606</text><text class="cls-4" transform="translate(265.57 465.13)">3460</text><text class="cls-8" transform="translate(59.09 42.05)">Indien</text><text class="cls-8" transform="translate(0 113.3)">Bangladesh</text><text class="cls-8" transform="translate(34.34 182.86)">Sri lan<tspan class="cls-9" x="66.4" y="0">k</tspan><tspan class="cls-10" x="78.32" y="0">a</tspan></text><text class="cls-8" transform="translate(34.23 254.11)">Mal<tspan class="cls-11" x="36.3" y="0">a</tspan><tspan class="cls-12" x="48.58" y="0">y</tspan><tspan x="60.87" y="0">sia</tspan></text><text class="cls-8" transform="translate(20.22 325.36)"><tspan class="cls-13">K</tspan><tspan x="13.77" y="0">ambodja</tspan></text><text class="cls-8" transform="translate(7.85 394.92)">Indonesien</text><text class="cls-8" transform="translate(79.15 466.17)">Kina</text></g></g></svg>